<svg width="40" height="40" viewBox="0 0 40 40" fill="none" xmlns="http://www.w3.org/2000/svg">
<path d="M24.5112 34.9999C24.191 35.0009 23.8746 34.9303 23.5853 34.7931C23.296 34.6559 23.0411 34.4557 22.8394 34.2071L12.4876 21.3511C12.1723 20.9677 12 20.4868 12 19.9906C12 19.4943 12.1723 19.0134 12.4876 18.63L23.2038 5.77404C23.5676 5.33647 24.0903 5.0613 24.6571 5.00907C25.2238 4.95683 25.7881 5.1318 26.2257 5.49549C26.6634 5.85918 26.9387 6.3818 26.9909 6.94838C27.0432 7.51495 26.8682 8.07907 26.5044 8.51664L16.9241 20.0013L26.1829 31.4859C26.445 31.8004 26.6114 32.1834 26.6626 32.5895C26.7138 32.9957 26.6475 33.408 26.4717 33.7776C26.2958 34.1473 26.0177 34.4589 25.6703 34.6755C25.3228 34.8921 24.9206 35.0046 24.5112 34.9999Z" fill="#777777"/>
</svg>
