<svg width="40" height="40" viewBox="0 0 40 40" fill="none" xmlns="http://www.w3.org/2000/svg">
<path fill-rule="evenodd" clip-rule="evenodd" d="M25.6222 34.2105C25.6222 36.2083 24.0764 37.845 22.1155 37.9896L21.8327 38H18.0432C16.0455 38 14.4088 36.4542 14.2642 34.4933L14.2538 34.2105H25.6222ZM19.9383 2C27.1108 2 32.9535 7.69328 33.1938 14.8072L33.2015 15.2632V22.3948L36.6537 29.2996C37.3136 30.6194 36.4311 32.1611 35.0072 32.3049L34.7897 32.3158H5.08696C3.61138 32.3158 2.62709 30.837 3.13525 29.499L3.22279 29.2996L6.67511 22.3948V15.2632C6.67511 7.93812 12.6132 2 19.9383 2ZM19.9383 5.78947C14.8438 5.78947 10.6885 9.81069 10.4733 14.8522L10.4646 15.2632V22.3948C10.4646 22.8654 10.3769 23.3308 10.2072 23.7677L10.0645 24.0896L7.84614 28.5263H32.0304L29.812 24.0896C29.6016 23.6685 29.4719 23.213 29.4284 22.7464L29.412 22.3948V15.2632C29.412 10.031 25.1705 5.78947 19.9383 5.78947Z" fill="#777777"/>
</svg>
