<svg width="40" height="40" viewBox="0 0 40 40" fill="none" xmlns="http://www.w3.org/2000/svg">
<path d="M15 26.6666C16.4173 27.7171 18.141 28.3333 20 28.3333C21.859 28.3333 23.5827 27.7171 25 26.6666" stroke="#777777" stroke-width="4" stroke-linecap="round"/>
<path d="M27.5 17.5C27.5 18.8807 26.6046 20 25.5 20C24.3954 20 23.5 18.8807 23.5 17.5C23.5 16.1193 24.3954 15 25.5 15C26.6046 15 27.5 16.1193 27.5 17.5Z" fill="#777777"/>
<path d="M14.5 20C15.6046 20 16.5 18.8807 16.5 17.5C16.5 16.1193 15.6046 15 14.5 15C13.3954 15 12.5 16.1193 12.5 17.5C12.5 18.8807 13.3954 20 14.5 20Z" fill="#777777"/>
<path d="M11.6667 5.56301C14.1182 4.14493 16.9644 3.33331 20 3.33331C29.2047 3.33331 36.6667 10.7952 36.6667 20C36.6667 29.2046 29.2047 36.6666 20 36.6666C10.7953 36.6666 3.33337 29.2046 3.33337 20C3.33337 16.9643 4.14499 14.1181 5.56307 11.6666" stroke="#777777" stroke-width="4" stroke-linecap="round"/>
</svg>
