<svg width="40" height="40" viewBox="0 0 40 40" fill="none" xmlns="http://www.w3.org/2000/svg">
<g clip-path="url(#clip0_28_254)">
<path d="M8.66667 0C3.91148 0 0 3.91148 0 8.66667V31.3333C0 36.0885 3.91148 40 8.66667 40H20.1052C24.5222 40 28.2091 36.6245 28.7115 32.3333H23.2957C22.8881 33.7107 21.6469 34.6667 20.1052 34.6667H8.66667C6.77388 34.6667 5.33333 33.2261 5.33333 31.3333V8.66667C5.33333 6.77388 6.77388 5.33333 8.66667 5.33333H20.1052C21.6469 5.33333 22.8881 6.28932 23.2957 7.66667H28.7115C28.2091 3.37554 24.5222 0 20.1052 0H8.66667Z" fill="#F79472"/>
<path d="M31.7909 12C31.4407 12 31.0939 12.0689 30.7703 12.2029C30.4468 12.337 30.1528 12.5334 29.9052 12.781C29.6575 13.0286 29.4611 13.3226 29.3271 13.6461C29.1931 13.9697 29.1241 14.3165 29.1241 14.6667C29.1241 15.0169 29.1931 15.3636 29.3271 15.6872C29.4611 16.0107 29.6575 16.3047 29.9052 16.5523L30.6862 17.3333H10.9151C10.2078 17.3333 9.52956 17.6143 9.02946 18.1144C8.52936 18.6145 8.24841 19.2928 8.24841 20C8.24841 20.7072 8.52936 21.3855 9.02946 21.8856C9.52956 22.3857 10.2078 22.6667 10.9151 22.6667H30.6862L29.9052 23.4477C29.6575 23.6953 29.4611 23.9893 29.3271 24.3128C29.1931 24.6364 29.1241 24.9831 29.1241 25.3333C29.1241 25.6835 29.1931 26.0303 29.3271 26.3539C29.4611 26.6774 29.6575 26.9714 29.9052 27.219C30.1528 27.4667 30.4468 27.6631 30.7703 27.7971C31.0939 27.9311 31.4407 28.0001 31.7909 28.0001C32.1411 28.0001 32.4878 27.9311 32.8114 27.7971C33.1349 27.6631 33.4289 27.4667 33.6765 27.219L38.5293 22.3663C38.9687 22.1458 39.3387 21.8081 39.5982 21.3905C39.8578 20.9729 39.9968 20.4917 40 20C39.9993 19.5008 39.8586 19.0118 39.5938 18.5886C39.3289 18.1655 38.9506 17.8251 38.5019 17.6064L33.6765 12.781C33.4289 12.5334 33.1349 12.337 32.8114 12.2029C32.4878 12.0689 32.1411 12 31.7909 12Z" fill="#F79472"/>
</g>
<defs>
<clipPath id="clip0_28_254">
<rect width="40" height="40" fill="white"/>
</clipPath>
</defs>
</svg>
