<svg width="40" height="40" viewBox="0 0 40 40" fill="none" xmlns="http://www.w3.org/2000/svg">
<path d="M15.2676 18.1166C15.1009 18.0999 14.9009 18.0999 14.7176 18.1166C10.7509 17.9833 7.60089 14.7333 7.60089 10.7333C7.60089 6.64992 10.9009 3.33325 15.0009 3.33325C19.0841 3.33325 22.4008 6.64992 22.4008 10.7333C22.3841 14.7333 19.2341 17.9833 15.2676 18.1166Z" stroke="#777777" stroke-width="4" stroke-linecap="round" stroke-linejoin="round"/>
<path d="M27.3488 6.66675C30.5821 6.66675 33.1821 9.28341 33.1821 12.5001C33.1821 15.6501 30.6821 18.2167 27.5655 18.3334C27.4321 18.3167 27.2821 18.3167 27.1321 18.3334" stroke="#777777" stroke-width="4" stroke-linecap="round" stroke-linejoin="round"/>
<path d="M6.93448 25.2667C2.90115 27.9667 2.90115 32.3667 6.93448 35.0501C11.5178 38.1167 19.0345 38.1167 23.6178 35.0501C27.6512 32.3501 27.6512 27.9501 23.6178 25.2667C19.0512 22.2167 11.5345 22.2167 6.93448 25.2667Z" stroke="#777777" stroke-width="4" stroke-linecap="round" stroke-linejoin="round"/>
<path d="M30.5663 34.3333C31.7663 34.0833 32.8997 33.5999 33.833 32.8833C36.433 30.9333 36.433 27.7166 33.833 25.7666C32.9163 25.0666 31.7997 24.5999 30.6163 24.3333" stroke="#777777" stroke-width="4" stroke-linecap="round" stroke-linejoin="round"/>
</svg>
