<svg width="512" height="512" viewBox="0 0 512 512" fill="none" xmlns="http://www.w3.org/2000/svg">
<path d="M0 153.6C0 68.7691 68.7691 0 153.6 0H358.4C443.231 0 512 68.7691 512 153.6V358.4C512 443.231 443.231 512 358.4 512H153.6C68.7691 512 0 443.231 0 358.4V153.6Z" fill="white"/>
<path fill-rule="evenodd" clip-rule="evenodd" d="M376.696 132.335C369.472 125.112 352.387 119.386 320.781 129.921L165.815 181.577C141.096 189.797 124.161 198.85 113.812 207.398C103.395 216.001 101.722 222.209 101.722 225.258C101.722 228.308 103.395 234.516 113.812 243.118C124.161 251.666 141.096 260.72 165.815 268.94L197.326 279.444C198.14 279.715 198.944 280.012 199.735 280.333L254.689 225.379C262.687 217.381 275.654 217.381 283.652 225.379C291.65 233.377 291.65 246.344 283.652 254.342L228.749 309.245C229.096 310.092 229.417 310.953 229.708 311.826L229.723 311.871L240.091 343.216L240.097 343.235C248.318 367.949 257.364 384.889 265.906 395.249C274.508 405.681 280.708 407.352 283.741 407.354C286.771 407.356 292.97 405.697 301.582 395.27C310.138 384.911 319.207 367.958 327.459 343.203L379.11 188.25C389.645 156.645 383.919 139.559 376.696 132.335ZM405.659 103.372C428.967 126.68 430.603 163.297 417.968 201.203L366.317 356.155C357.191 383.534 346.122 405.665 333.163 421.354C320.26 436.976 303.568 448.327 283.714 448.314C263.864 448.301 247.187 436.931 234.304 421.307C221.364 405.614 210.319 383.491 201.224 356.142L190.853 324.788C190.853 324.788 190.695 324.38 190.198 323.632C189.679 322.853 188.956 321.96 188.074 321.078C187.191 320.195 186.299 319.473 185.519 318.954C184.706 318.412 184.293 318.275 184.373 318.302L152.889 307.807C125.535 298.71 103.415 287.655 87.7284 274.7C72.1081 261.799 60.7625 245.108 60.7625 225.258C60.7625 205.409 72.1081 188.718 87.7284 175.817C103.412 162.863 125.528 151.81 152.876 142.714L307.828 91.0634C345.734 78.428 382.351 80.0639 405.659 103.372Z" fill="#333333"/>
</svg>
