<svg width="40" height="40" viewBox="0 0 40 40" fill="none" xmlns="http://www.w3.org/2000/svg">
<path fill-rule="evenodd" clip-rule="evenodd" d="M20 4.99999C13.0853 4.99999 6.66671 9.55659 6.66671 16.6667C6.66671 19.284 7.31407 21.2148 8.47091 22.759C9.65009 24.333 11.4625 25.6438 14.0272 26.818L15.3877 27.4408L14.9145 28.8603C14.2355 30.8973 13.0833 32.7685 11.9193 34.3073C15.9412 33.0438 21.1945 31.0895 24.9089 28.6132C28.5919 26.158 30.6615 24.2255 31.8319 22.425C32.9597 20.6898 33.3334 18.9517 33.3334 16.6667C33.3334 9.55659 26.9149 4.99999 20 4.99999ZM3.33337 16.6667C3.33337 7.11006 11.9148 1.66666 20 1.66666C28.0852 1.66666 36.6667 7.11006 36.6667 16.6667C36.6667 19.3817 36.207 21.8102 34.6265 24.2417C33.0885 26.6078 30.5749 28.842 26.7579 31.3868C21.7969 34.694 14.6099 37.0387 10.4962 38.2135C9.14446 38.5995 8.06762 37.8063 7.60409 36.9802C7.14751 36.1663 7.03482 34.909 7.90692 33.9357C9.07402 32.633 10.3534 30.9553 11.2103 29.1452C9.00061 27.9735 7.15547 26.5627 5.80319 24.7575C4.14646 22.5462 3.33337 19.8827 3.33337 16.6667Z" fill="#777777"/>
<path d="M20 10C19.0795 10 18.3334 10.7462 18.3334 11.6667V15H15C14.0796 15 13.3334 15.7462 13.3334 16.6667C13.3334 17.5872 14.0796 18.3333 15 18.3333H18.3334V21.6667C18.3334 22.5872 19.0795 23.3333 20 23.3333C20.9205 23.3333 21.6667 22.5872 21.6667 21.6667V18.3333H25C25.9205 18.3333 26.6667 17.5872 26.6667 16.6667C26.6667 15.7462 25.9205 15 25 15H21.6667V11.6667C21.6667 10.7462 20.9205 10 20 10Z" fill="#777777"/>
</svg>
