<svg width="40" height="40" viewBox="0 0 40 40" fill="none" xmlns="http://www.w3.org/2000/svg">
<path d="M20.6666 17.2833C20.4999 17.2667 20.2999 17.2667 20.1166 17.2833C16.15 17.15 13 13.9 13 9.9C13 5.81667 16.3 2.5 20.3999 2.5C24.4832 2.5 27.7999 5.81667 27.7999 9.9C27.7832 13.9 24.6332 17.15 20.6666 17.2833Z" stroke="#777777" stroke-width="4" stroke-linecap="round" stroke-linejoin="round"/>
<path d="M12.025 24.5708C7.99167 27.2708 7.99167 31.6708 12.025 34.3542C16.6083 37.4208 24.125 37.4208 28.7083 34.3542C32.7417 31.6542 32.7417 27.2542 28.7083 24.5708C24.1417 21.5208 16.625 21.5208 12.025 24.5708Z" stroke="#777777" stroke-width="4" stroke-linecap="round" stroke-linejoin="round"/>
</svg>
